<?xml version="1.0" standalone="no"?>
<!DOCTYPE svg PUBLIC "-//W3C//DTD SVG 20010904//EN"
 "http://www.w3.org/TR/2001/REC-SVG-20010904/DTD/svg10.dtd">
<svg version="1.0" xmlns="http://www.w3.org/2000/svg"
 width="195.000000pt" height="117.000000pt" viewBox="0 0 195.000000 117.000000"
 preserveAspectRatio="xMidYMid meet">

<g transform="translate(0.000000,117.000000) scale(0.100000,-0.100000)"
fill="#000000" stroke="none">
<path d="M316 825 c-74 -19 -92 -52 -56 -97 19 -25 44 -38 105 -55 21 -6 -11
-9 -110 -13 l-140 -5 0 -35 0 -35 192 0 c179 0 193 1 220 21 18 14 29 32 31
52 3 27 -2 35 -30 52 -18 11 -48 23 -66 26 -67 13 -40 24 57 24 l100 0 3 -87
3 -88 63 -3 62 -3 0 91 0 90 65 0 65 0 0 40 0 40 -257 -1 c-181 0 -273 -4
-307 -14z"/>
<path d="M896 718 c-25 -68 -46 -126 -46 -130 0 -5 27 -8 60 -8 49 0 61 3 70
20 8 15 21 20 55 20 34 0 47 -5 55 -20 9 -17 21 -20 76 -20 36 0 64 4 62 8 -1
5 -28 63 -57 130 l-55 122 -86 0 -87 0 -47 -122z m142 -46 c-27 -5 -32 2 -18
29 l13 22 13 -24 c11 -22 11 -24 -8 -27z"/>
<path d="M1264 827 c-2 -7 -3 -65 -2 -128 l3 -114 70 0 70 0 3 32 3 32 62 -32
c60 -31 67 -32 205 -35 l142 -3 0 40 0 41 -100 0 c-60 0 -100 4 -100 10 0 6 5
10 10 10 20 0 50 41 50 69 0 35 -34 63 -95 80 -59 16 -314 15 -321 -2z m276
-82 c10 -12 8 -16 -15 -25 -14 -5 -46 -10 -71 -10 -40 0 -44 2 -44 25 0 24 3
25 59 25 40 0 63 -5 71 -15z"/>
<path d="M120 550 c0 -6 21 -65 47 -131 l47 -119 58 0 c56 0 58 1 76 36 l19
36 21 -36 c20 -34 24 -36 75 -36 l53 0 47 118 c26 64 47 123 47 130 0 10 -18
12 -67 10 l-66 -3 -19 -54 c-10 -30 -20 -56 -22 -58 -2 -2 -17 17 -32 42 -16
25 -32 45 -35 45 -3 0 -21 -21 -39 -47 l-34 -46 -22 59 -22 59 -66 3 c-43 2
-66 -1 -66 -8z"/>
<path d="M671 542 c-10 -20 -91 -229 -91 -237 0 -3 29 -5 63 -5 59 0 65 2 75
26 11 22 17 25 55 22 32 -2 44 -8 52 -25 9 -20 17 -23 72 -23 35 0 63 4 63 8
0 5 -24 62 -53 128 l-54 119 -86 3 c-75 2 -87 0 -96 -16z m114 -129 c5 -19 2
-23 -14 -23 -23 0 -24 3 -15 38 7 26 18 20 29 -15z"/>
<path d="M987 553 c-4 -3 -7 -62 -7 -130 l0 -124 73 3 72 3 3 32 3 32 61 -32
62 -32 195 -3 c107 -2 209 -1 227 3 40 7 94 50 94 74 0 26 -40 59 -93 77 -26
9 -44 20 -41 25 3 5 45 9 95 9 l89 0 0 35 0 35 -122 0 c-180 -1 -248 -21 -248
-76 0 -29 51 -71 95 -80 20 -3 38 -10 41 -15 7 -12 -227 -11 -246 1 -13 9 -13
10 1 10 22 0 59 42 59 69 0 31 -42 67 -95 80 -47 12 -307 15 -318 4z m246 -74
c20 -5 37 -14 37 -19 0 -12 -65 -30 -107 -30 -30 0 -33 3 -33 30 0 27 3 30 33
30 17 0 49 -5 70 -11z"/>
</g>
</svg>
